<?xml version="1.0" encoding="UTF-8"?>
<svg id="Layer_1" data-name="Layer 1" xmlns="http://www.w3.org/2000/svg" viewBox="0 0 204.04 57.14">
  <defs>
    <style>
      .cls-1 {
        fill: #231f20;
      }
    </style>
  </defs>
  <path class="cls-1" d="M8.93,8.28c.75-.04,1.3-.06,1.65-.06s1,.04,1.96.13l-1.29,9.34v2.17l-5.72,36.19H0L7.83,8.35l1.1-.06ZM10.23,44.42c-.91-.16-1.82-.4-2.74-.72s-2.26-.84-4.04-1.56l1.76-5.03c1.59.82,2.71,1.38,3.36,1.7.65.31,1.34.56,2.06.74.72.18,1.55.27,2.47.27,2.2,0,4.28-.99,6.22-2.97s3.52-4.37,4.7-7.17c1.18-2.8,1.78-5.3,1.78-7.5,0-.88-.11-1.64-.33-2.3-.22-.65-.55-1.16-.99-1.52-.44-.37-.99-.55-1.63-.55-1.3,0-3.15.6-5.56,1.81-2.41,1.21-4.88,2.89-7.42,5.06-2.54,2.17-4.67,4.62-6.41,7.34l-2.58-4.37c2.72-3.54,5.49-6.48,8.3-8.8,2.81-2.33,5.42-4.03,7.84-5.11,2.42-1.08,4.51-1.62,6.27-1.62,1.87,0,3.41.41,4.64,1.23s2.13,1.93,2.72,3.33c.59,1.4.88,3.02.88,4.84,0,3.25-.83,6.69-2.5,10.33-1.67,3.64-3.89,6.68-6.68,9.13-2.79,2.45-5.77,3.68-8.96,3.68-1.19,0-2.25-.08-3.16-.24ZM1.19,53.81c.17-.99.28-1.78.35-2.39l2.11.19,2.33.19c-.08.5-.16.99-.22,1.48-.06.48-.13.96-.19,1.45-.02.29-.07.73-.16,1.32H.88c.1-.73.21-1.48.31-2.23Z"/>
  <path class="cls-1" d="M39,43.65c-1.06-.67-1.87-1.6-2.42-2.78-.56-1.18-.83-2.56-.83-4.13,0-3.92.7-7.78,2.09-11.57,1.39-3.79,3.44-6.92,6.15-9.37s5.92-3.68,9.65-3.68c1.95,0,3.88.19,5.78.57,1.91.38,3.95,1.01,6.13,1.89l-2.45,4.59c-1.43-.75-2.85-1.3-4.28-1.63-1.43-.33-3.01-.5-4.75-.5-2.43,0-4.61.85-6.54,2.55-1.93,1.7-3.44,4.02-4.54,6.96-1.1,2.95-1.65,6.23-1.65,9.86,0,.99.18,1.66.53,2.03.36.37.82.55,1.38.55,1.4,0,3.34-1.19,5.8-3.58,2.46-2.39,4.79-5.41,6.98-9.05,2.19-3.65,3.66-7.28,4.42-10.91l.85,7.86c-1.93,5.09-4.08,9.24-6.44,12.45-2.37,3.21-4.62,5.5-6.74,6.87-2.13,1.37-3.89,2.06-5.3,2.06-1.49,0-2.76-.34-3.82-1.01ZM60.85,37c-.09.95-.03,1.64.2,2.06.23.42.65.63,1.26.63,1.01,0,1.98-.31,2.92-.94s1.92-1.46,2.92-2.48l2.52,3.3c-1.47,1.63-3.04,2.89-4.73,3.77-1.69.88-3.27,1.32-4.73,1.32-1.99,0-3.44-.52-4.34-1.56-.9-1.04-1.37-2.42-1.41-4.15-.04-1.73.22-3.74.79-6.02l4.28-17.83,5.53-.53-4.46,18.36c-.4,1.76-.64,3.12-.74,4.07Z"/>
  <path class="cls-1" d="M78.94,43.21c-1.63-.96-2.85-2.3-3.65-3.99-.8-1.7-1.19-3.67-1.19-5.91,0-3.46.72-6.71,2.15-9.75,1.44-3.04,3.45-5.48,6.04-7.33,2.59-1.84,5.54-2.77,8.85-2.77,1.38,0,2.85.16,4.39.47s2.96.81,4.26,1.48l.13,4.62c-1.36-.67-2.7-1.14-4.01-1.4-1.31-.26-2.7-.39-4.17-.39-2.39,0-4.48.64-6.26,1.93-1.78,1.29-3.15,3.07-4.1,5.34-.95,2.27-1.43,4.87-1.43,7.78,0,1.3.2,2.44.61,3.41s1.04,1.73,1.9,2.28c.86.55,1.93.82,3.21.82,2.41,0,4.57-.82,6.49-2.47,1.92-1.64,3.42-3.88,4.51-6.7,1.09-2.82,1.63-5.93,1.63-9.32s-.44-6.17-1.32-8.69c-.88-2.53-2.46-4.49-4.75-5.89-2.28-1.4-5.42-1.89-9.4-1.45l.31-5.16c4.99-.48,9.04.27,12.15,2.26,3.11,1.99,5.33,4.61,6.67,7.86,1.33,3.25,2,6.59,2,10.03,0,4.55-.77,8.67-2.31,12.37-1.54,3.7-3.74,6.62-6.6,8.77-2.86,2.15-6.2,3.22-10.01,3.22-2.43,0-4.46-.48-6.1-1.45Z"/>
  <path class="cls-1" d="M110.46,43.67c-.93-.66-1.57-1.67-1.92-3.02s-.3-3.02.14-5.01l4.94-22.6c1.82-.21,3.76-.21,5.82,0l-5.03,22.29c-.27,1.24-.23,2.11.13,2.63.36.51.93.77,1.73.77,1.3,0,3.19-1.44,5.67-4.31,2.48-2.87,4.84-6.33,7.07-10.39s3.69-7.72,4.39-10.99l.13,9.4c-1.8,4.28-3.79,8.09-5.97,11.43-2.18,3.34-4.44,5.98-6.79,7.91-2.35,1.93-4.63,2.89-6.85,2.89-1.36,0-2.51-.33-3.44-.99ZM135.09,34.69c-.23,1.36-.36,2.38-.38,3.07-.02.68.08,1.17.3,1.48.22.3.61.46,1.18.46,1.07,0,2.1-.31,3.1-.94.99-.63,2.03-1.46,3.1-2.48l2.67,3.3c-1.55,1.63-3.22,2.89-5.01,3.77s-3.46,1.32-5.01,1.32c-2.1,0-3.59-.51-4.48-1.52-.89-1.02-1.36-2.35-1.41-4.01-.05-1.66.15-3.72.61-6.19l3.65-19.9h5.41l-3.4,19.9c-.11.59-.21,1.17-.31,1.76Z"/>
  <path class="cls-1" d="M147.73,55.79c-.71-.44-1.44-.89-2.17-1.35,3.81-3.86,7.33-7.97,10.53-12.32s6.02-9,8.43-13.93c2.41-4.92,4.22-9.98,5.44-15.15,1.19,0,2.36.02,3.51.05,1.14.03,2,.08,2.56.14-1.4,5.55-3.42,10.96-6.05,16.21-2.63,5.25-5.65,10.19-9.05,14.81-3.41,4.62-7.09,8.92-11.05,12.91-.46-.31-1.17-.77-2.14-1.35ZM153.14,40.4c-.59-2.32-1.14-4.55-1.67-6.71-1.11-4.53-2.07-8.61-2.89-12.25-.82-3.64-1.41-6.44-1.79-8.41.94,0,1.95.01,3.03.03,1.08.02,2.04.07,2.88.16.21.94.36,1.65.46,2.11.09.46.24,1.15.42,2.07.59,2.83,1.31,6.31,2.17,10.45.86,4.14,1.84,8.9,2.96,14.29l-3.74,5.41c-.63-2.45-1.24-4.84-1.82-7.15Z"/>
  <path class="cls-1" d="M182.14,43.45c-1.58-.81-2.84-2.06-3.76-3.77-.92-1.71-1.38-3.87-1.38-6.49,0-3.21.75-6.44,2.25-9.71,1.5-3.27,3.59-5.98,6.29-8.13,2.69-2.15,5.75-3.22,9.16-3.22,1.4,0,2.9.21,4.48.63,1.58.42,3.2,1.09,4.86,2.01l-2.14,10.12c-.34.08-.69.14-1.07.16-.71.06-1.46.08-2.23.06-.78-.02-1.41-.09-1.92-.22l1.89-7.07c-.65-.21-1.31-.36-1.98-.46-.67-.09-1.38-.14-2.14-.14-2.26,0-4.31.81-6.13,2.44-1.82,1.62-3.24,3.66-4.26,6.1-1.02,2.44-1.52,4.79-1.52,7.06,0,1.68.28,3.03.85,4.06.57,1.03,1.33,1.76,2.28,2.19.95.43,2.06.64,3.32.64s2.59-.24,3.95-.72c1.35-.48,2.64-1.09,3.87-1.84,1.23-.74,2.33-1.52,3.32-2.34l2.58,3.36c-2.12,1.99-4.54,3.57-7.26,4.75-2.73,1.17-5.36,1.76-7.89,1.76-2.01,0-3.81-.4-5.39-1.21Z"/>
</svg>